<?xml version="1.0" standalone="no"?>
<!DOCTYPE svg PUBLIC "-//W3C//DTD SVG 20010904//EN"
 "http://www.w3.org/TR/2001/REC-SVG-20010904/DTD/svg10.dtd">
<svg version="1.0" xmlns="http://www.w3.org/2000/svg"
 width="959.000000pt" height="260.000000pt" viewBox="0 0 959.000000 260.000000"
 preserveAspectRatio="xMidYMid meet">

<g transform="translate(0.000000,260.000000) scale(0.100000,-0.100000)"
fill="#fff" stroke="none">
<path d="M8057 2593 c-2 -5 10 -95 28 -202 39 -236 39 -236 150 -226 95 9 105
13 105 39 0 24 -185 376 -204 388 -14 10 -74 10 -79 1z"/>
<path d="M7770 2562 c-96 -25 -93 -39 26 -148 53 -49 102 -92 109 -96 17 -10
85 10 85 25 0 35 -61 213 -76 224 -23 17 -63 15 -144 -5z"/>
<path d="M8291 2567 c-17 -21 63 -213 92 -221 58 -15 64 -11 86 72 12 43 21
83 21 89 0 21 -37 42 -103 57 -83 19 -82 19 -96 3z"/>
<path d="M8565 2378 c-82 -195 -82 -194 -61 -217 22 -25 146 -74 172 -69 24 4
28 54 19 236 l-7 133 -29 14 c-15 8 -32 15 -37 15 -6 0 -31 -51 -57 -112z"/>
<path d="M7488 2459 c-21 -11 -38 -23 -38 -27 0 -11 287 -374 321 -404 16 -16
39 -28 52 -28 21 0 144 79 158 101 4 6 4 20 2 30 -5 16 -416 334 -446 344 -7
2 -29 -5 -49 -16z"/>
<path d="M8802 2373 c-5 -10 -12 -52 -16 -95 -6 -74 -6 -77 20 -97 15 -12 32
-21 39 -21 6 0 38 24 70 53 71 65 69 79 -19 136 -70 46 -81 49 -94 24z"/>
<path d="M7278 2322 c-9 -4 -46 -33 -82 -65 -64 -57 -78 -83 -58 -114 7 -11
330 -113 357 -113 16 0 65 53 65 71 0 7 -46 60 -103 116 -102 103 -137 123
-179 105z"/>
<path d="M8948 2115 c-153 -101 -154 -104 -69 -189 84 -83 88 -81 184 82 l79
133 -28 30 c-15 16 -30 29 -33 28 -3 0 -63 -38 -133 -84z"/>
<path d="M9155 1969 l-48 -61 19 -35 18 -35 74 6 c85 8 122 20 122 39 0 14
-76 127 -94 139 -25 17 -46 5 -91 -53z"/>
<path d="M6979 1998 c-24 -20 -51 -68 -47 -85 4 -20 607 -273 652 -273 43 0
61 21 97 115 30 75 31 103 5 124 -9 7 -661 131 -691 131 -1 0 -8 -6 -16 -12z"/>
<path d="M9057 1743 c-13 -13 -7 -51 19 -109 30 -69 50 -94 75 -94 22 0 293
127 297 139 2 5 -4 23 -13 40 l-16 31 -178 0 c-98 0 -181 -3 -184 -7z"/>
<path d="M6865 1706 c-45 -19 -52 -33 -80 -149 -43 -178 -31 -184 269 -118
119 26 222 53 228 59 6 6 13 33 16 61 l4 49 -68 21 c-179 52 -319 91 -329 91
-5 -1 -24 -7 -40 -14z"/>
<path d="M3257 1590 l-15 -40 27 0 c18 0 39 13 66 40 l39 40 -50 0 c-50 0 -51
-1 -67 -40z"/>
<path d="M9385 1522 c-78 -26 -80 -28 -77 -57 6 -49 16 -57 118 -97 109 -42
119 -44 127 -24 10 25 -32 170 -55 189 -24 20 -15 21 -113 -11z"/>
<path d="M132 1499 c-144 -73 -143 -337 2 -412 48 -25 139 -26 190 -2 37 18
70 60 81 108 7 26 6 27 -33 27 -35 0 -43 -4 -60 -35 -23 -38 -55 -50 -107 -41
-84 16 -122 160 -65 253 39 65 142 66 176 2 12 -25 21 -29 55 -29 40 0 41 1
35 28 -9 34 -34 70 -69 96 -42 31 -149 34 -205 5z"/>
<path d="M883 1494 c-158 -94 -120 -385 55 -423 145 -30 256 68 255 229 0 96
-51 181 -126 209 -53 20 -138 13 -184 -15z m152 -58 c46 -20 69 -66 69 -141 0
-97 -46 -155 -123 -155 -119 0 -152 235 -42 295 33 18 54 18 96 1z"/>
<path d="M2419 1497 c-45 -30 -72 -85 -64 -130 10 -53 52 -86 134 -107 83 -21
121 -43 121 -69 0 -53 -110 -72 -155 -26 -14 13 -25 29 -25 35 0 5 -20 10 -45
10 -44 0 -45 -1 -39 -27 17 -76 81 -116 183 -116 78 0 123 20 151 66 38 62 19
139 -42 170 -18 9 -62 24 -98 33 -96 23 -121 53 -80 94 13 13 33 20 58 20 41
-1 63 -13 81 -47 9 -18 20 -23 53 -23 40 0 40 0 34 32 -13 68 -78 108 -174
108 -45 0 -67 -6 -93 -23z"/>
<path d="M3195 1504 c-44 -24 -65 -45 -85 -84 -60 -118 -19 -281 84 -333 47
-24 139 -26 182 -4 75 39 114 112 114 215 0 82 -26 141 -83 186 -34 27 -48 31
-110 33 -52 3 -80 -1 -102 -13z m139 -69 c47 -23 69 -66 69 -140 0 -47 -6 -72
-22 -98 -37 -61 -108 -75 -160 -32 -77 65 -65 229 20 272 32 17 54 16 93 -2z"/>
<path d="M4717 1491 c-66 -43 -92 -99 -91 -201 0 -143 72 -222 199 -222 87 0
148 37 174 105 17 43 14 47 -32 47 -38 0 -44 -3 -54 -30 -19 -51 -99 -67 -148
-28 -78 61 -72 219 9 269 17 10 41 19 54 19 36 0 81 -28 88 -55 5 -22 12 -25
51 -25 44 0 45 1 39 28 -9 34 -34 70 -70 96 -20 15 -46 22 -99 24 -66 3 -76 1
-120 -27z"/>
<path d="M5995 1500 c-82 -41 -126 -150 -105 -259 10 -55 16 -66 59 -114 39
-43 80 -60 142 -60 104 0 178 65 200 176 22 110 -21 216 -104 256 -57 28 -138
28 -192 1z m146 -66 c37 -19 68 -83 69 -139 0 -51 -37 -126 -70 -143 -38 -19
-101 -8 -127 23 -63 72 -49 220 25 259 35 20 66 20 103 0z"/>
<path d="M1590 1296 l0 -216 45 0 44 0 3 137 3 138 85 -138 84 -137 43 0 43 0
0 215 0 215 -40 0 -40 0 -1 -97 c-1 -54 -2 -115 -2 -136 0 -48 -3 -45 -96 105
l-76 123 -48 3 -47 3 0 -215z"/>
<path d="M3890 1295 l0 -215 45 0 45 0 0 85 0 85 55 0 c64 0 95 -22 95 -67 0
-16 3 -45 6 -65 6 -37 8 -38 51 -38 l44 0 -7 53 c-10 82 -23 126 -43 139 -18
11 -17 14 15 43 29 28 34 39 34 80 0 40 -5 52 -34 81 l-34 34 -136 0 -136 0 0
-215z m231 135 c24 -13 26 -66 2 -92 -12 -14 -31 -18 -80 -18 l-63 0 0 60 0
60 61 0 c33 0 69 -5 80 -10z"/>
<path d="M5400 1295 l0 -215 45 0 45 0 0 215 0 215 -45 0 -45 0 0 -215z"/>
<path d="M7465 1420 c-44 -16 -217 -76 -384 -134 -167 -58 -310 -111 -317
-117 -23 -19 -15 -133 11 -143 7 -2 72 4 146 15 74 10 253 35 399 54 146 20
278 41 293 47 52 20 58 62 28 192 -29 120 -52 131 -176 86z"/>
<path d="M9156 1374 c-12 -11 -16 -36 -16 -99 0 -124 -6 -119 237 -157 111
-18 206 -29 209 -25 4 4 3 26 -2 49 l-9 43 -195 102 c-107 56 -198 103 -202
103 -4 0 -14 -7 -22 -16z"/>
<path d="M250 870 c-198 -17 -258 -80 -248 -260 8 -127 46 -170 167 -189 36
-6 205 -14 376 -19 351 -10 359 -12 376 -76 14 -51 6 -149 -15 -180 -30 -46
-68 -51 -396 -51 -272 0 -308 2 -337 18 -42 22 -55 49 -62 122 l-6 60 -52 3
-53 3 0 -38 c0 -69 29 -155 63 -191 55 -56 100 -64 399 -70 383 -6 488 13 540
96 19 31 23 54 26 143 4 90 1 113 -16 152 -38 87 -86 97 -502 106 -410 9 -400
6 -400 142 0 139 0 139 407 139 278 0 321 -2 342 -16 29 -21 51 -72 51 -119
l0 -35 56 0 55 0 -6 58 c-14 112 -49 163 -129 188 -61 18 -483 28 -636 14z"/>
<path d="M2080 440 l0 -420 55 0 55 0 0 420 0 420 -55 0 -55 0 0 -420z"/>
<path d="M3330 725 l0 -135 -37 24 c-49 32 -131 46 -262 46 -119 0 -234 -21
-271 -48 -68 -51 -93 -124 -93 -277 0 -180 33 -253 132 -298 38 -17 72 -21
200 -25 171 -5 239 5 295 43 l36 24 0 -29 c0 -30 1 -30 55 -30 l55 0 0 420 0
420 -55 0 -55 0 0 -135z m-73 -178 c51 -27 67 -67 71 -187 6 -162 -20 -229
-101 -251 -59 -17 -321 -15 -371 3 -59 19 -78 59 -84 173 -7 132 4 200 36 237
38 41 73 47 257 45 130 -2 166 -6 192 -20z"/>
<path d="M4790 440 l0 -421 408 4 c445 4 463 6 518 61 41 41 57 101 52 191 -5
96 -29 143 -94 175 l-49 26 30 14 c93 45 113 230 34 310 -52 51 -72 54 -501
57 l-398 4 0 -421z m817 296 c22 -27 25 -36 21 -97 -4 -78 -21 -103 -77 -119
-20 -6 -169 -10 -343 -10 l-308 0 0 130 0 131 341 -3 341 -3 25 -29z m-15
-339 c57 -29 73 -60 72 -142 -1 -145 -1 -145 -429 -145 l-335 0 0 156 0 155
328 -3 c293 -3 331 -5 364 -21z"/>
<path d="M7360 498 c0 -189 4 -338 10 -360 25 -88 116 -124 297 -116 169 7
203 38 218 201 l7 67 -51 0 -51 0 0 -65 c0 -57 -3 -69 -25 -90 -23 -24 -31
-25 -134 -25 -102 0 -112 2 -138 24 l-28 24 -3 201 -4 201 196 0 196 0 0 45 0
45 -195 0 -195 0 0 85 0 85 -50 0 -50 0 0 -322z"/>
<path d="M1395 656 c-5 -2 -36 -9 -69 -16 -42 -9 -69 -22 -96 -47 -57 -51 -74
-111 -74 -258 0 -142 18 -208 70 -259 53 -52 102 -61 324 -61 178 0 199 2 241
21 86 40 115 91 129 222 11 102 -2 227 -29 279 -48 95 -101 114 -321 119 -91
2 -169 2 -175 0z m358 -109 c55 -36 62 -58 62 -212 0 -206 -11 -221 -176 -236
-130 -12 -292 2 -328 29 -40 29 -53 90 -49 227 5 159 19 186 113 209 11 2 94
4 185 3 140 -2 170 -5 193 -20z"/>
<path d="M3761 649 c-87 -15 -131 -45 -166 -113 -29 -58 -30 -63 -30 -200 1
-130 3 -145 27 -197 50 -109 122 -132 397 -127 162 3 191 6 225 23 53 27 75
60 83 123 l6 53 -49 -3 c-46 -3 -49 -5 -55 -37 -11 -55 -27 -63 -144 -73 -132
-11 -293 2 -330 26 -34 22 -55 73 -55 131 l0 45 315 0 315 0 0 103 c0 87 -4
110 -22 147 -41 80 -138 111 -348 109 -63 -1 -139 -5 -169 -10z m354 -89 c59
-13 85 -49 85 -116 l0 -54 -266 0 -267 0 5 51 c6 63 33 100 84 116 47 14 302
16 359 3z"/>
<path d="M6169 650 c-57 -10 -103 -33 -123 -62 -16 -22 -16 -21 -16 20 l0 42
-55 0 -55 0 0 -315 0 -315 55 0 55 0 0 230 c0 257 5 279 61 299 18 6 77 14
131 18 l98 6 0 44 0 43 -52 -1 c-29 -1 -74 -5 -99 -9z"/>
<path d="M6630 646 c-75 -18 -101 -30 -127 -58 -52 -56 -77 -186 -62 -330 13
-132 42 -183 128 -221 40 -18 71 -22 222 -25 247 -6 323 15 374 103 47 79 57
290 19 397 -20 56 -66 103 -123 124 -62 22 -352 29 -431 10z m406 -98 c49 -27
64 -77 63 -216 -1 -195 -18 -218 -177 -233 -122 -11 -288 2 -324 25 -37 24
-50 62 -56 162 -9 180 17 254 98 274 19 5 109 8 200 7 132 -2 171 -6 196 -19z"/>
<path d="M8179 650 c-92 -16 -131 -50 -144 -127 l-7 -43 56 0 c51 0 56 2 56
23 0 33 12 46 51 57 48 14 306 12 349 -3 43 -15 66 -55 74 -127 l6 -55 -248 0
c-235 0 -249 -1 -288 -22 -59 -32 -77 -74 -72 -175 3 -77 5 -81 39 -113 48
-44 106 -55 287 -55 136 0 204 9 265 35 12 5 17 3 17 -9 0 -13 11 -16 51 -16
l51 0 -4 238 c-3 229 -4 239 -28 287 -31 62 -72 90 -153 104 -71 12 -287 13
-358 1z m435 -433 c0 -92 -10 -106 -81 -118 -64 -11 -287 -10 -343 0 -56 11
-80 40 -80 96 0 51 28 92 68 98 15 2 119 4 232 3 l205 -1 -1 -78z"/>
<path d="M8990 649 c-96 -19 -122 -60 -118 -181 3 -76 6 -90 27 -112 36 -38
73 -44 319 -52 268 -8 267 -8 267 -103 -1 -43 -6 -66 -17 -78 -24 -23 -218
-37 -361 -25 -120 10 -137 19 -137 74 0 27 -2 28 -51 28 l-51 0 4 -57 c4 -47
10 -61 36 -84 47 -42 115 -51 345 -47 183 3 207 5 250 25 67 31 91 86 85 189
-6 82 -22 115 -71 141 -26 14 -74 18 -272 24 -132 4 -241 7 -242 8 -23 15 -33
40 -33 85 0 81 -1 81 239 84 234 3 250 -1 264 -61 9 -37 9 -37 59 -37 l50 0
-7 47 c-11 76 -21 92 -72 116 -44 20 -67 22 -258 24 -115 1 -230 -2 -255 -8z"/>
</g>
</svg>
